<svg width="38" height="76" viewBox="0 0 38 76" fill="none" xmlns="http://www.w3.org/2000/svg">
<path d="M2.25781 52.0234L17.5195 75.507C17.5195 75.507 17.3917 57.2527 17.5195 57.3805L2.25781 52.0234Z" fill="#C49A6C"/>
<path d="M19.5547 75.507L34.8163 52.0234L19.5547 57.3805C19.6825 57.2527 19.5547 75.507 19.5547 75.507Z" fill="#C49A6C"/>
<path d="M12.0879 12.9882C12.4643 12.9882 12.7695 12.683 12.7695 12.3066C12.7695 11.9302 12.4643 11.625 12.0879 11.625C11.7114 11.625 11.4062 11.9302 11.4062 12.3066C11.4062 12.683 11.7114 12.9882 12.0879 12.9882Z" fill="#C49A6C"/>
<path d="M18.791 12.9882C19.1637 12.9882 19.4726 12.6794 19.4726 12.3066C19.4726 11.9339 19.1637 11.625 18.791 11.625C18.4182 11.625 18.1094 11.9339 18.1094 12.3066C18.1094 12.6794 18.4182 12.9882 18.791 12.9882Z" fill="#C49A6C"/>
<path d="M25.5097 12.9882C25.8825 12.9882 26.1913 12.6794 26.1913 12.3066C26.1913 11.9339 25.8825 11.625 25.5097 11.625C25.137 11.625 24.8281 11.9339 24.8281 12.3066C24.8281 12.6794 25.137 12.9882 25.5097 12.9882Z" fill="#C49A6C"/>
<path d="M37.1477 29.2666V26.0076H34.6555C34.4745 25.9118 33.3562 25.2941 32.3551 23.9095C31.4498 22.6741 31.1942 19.1596 31.1729 17.9029V17.4236H30.7789V15.8367H29.3731C27.914 8.04085 23.4729 5.68717 20.7571 4.98426V4.079H21.0234V3.06724C21.0234 1.91702 20.214 0.958514 19.1276 0.734862V0H18.1585V0.74551C17.0828 0.969163 16.2628 1.92767 16.2628 3.07789V4.08965H16.4971V5.05881C13.9943 5.85757 11.6193 7.9024 10.3732 9.88332C8.70116 12.5246 8.18995 15.1232 8.0728 15.8474H6.45398V17.4343H6.07057V17.9135C6.03862 19.1596 5.78302 22.6848 4.87776 23.9202C3.87664 25.2941 2.76903 25.9118 2.57733 26.0183H0V29.2772H1.94897V40.0764H1.46972V43.9105H1.94897V50.8011H35.1987V43.9105H35.6779V40.0764H35.1987V29.2772H37.1477V29.2666ZM32.4829 29.9375V40.0658H30.683V29.9375C30.9067 29.7991 31.0558 29.5754 31.0771 29.2985H32.0995C32.1208 29.5754 32.2699 29.7991 32.4936 29.9375H32.4829ZM34.2295 49.8107H33.8355V46.605C33.8355 45.8808 33.2497 45.2844 32.5149 45.2844C31.78 45.2844 31.1942 45.8701 31.1942 46.605V49.8107H30.0866V43.8998H34.2295V49.8107ZM31.109 42.92L32.1315 42.0467L33.2391 42.92H31.109ZM34.3254 42.92L32.1208 41.1734L30.0653 42.92H23.6113V42.7177L19.969 41.0456H34.7088V42.92H34.3254ZM18.5206 45.2844C17.7964 45.2844 17.2 45.8701 17.2 46.605V49.8107H14.2286V43.8998H22.9404V49.8107H19.8412V46.605C19.8412 45.8808 19.2554 45.2844 18.5206 45.2844ZM4.90971 45.2844C4.1855 45.2844 3.58909 45.8701 3.58909 46.605V49.8107H2.92879V43.8998H7.02909V49.8107H6.23033V46.605C6.23033 45.8808 5.64457 45.2844 4.90971 45.2844ZM3.8021 42.92L4.82451 42.0467L5.93212 42.92H3.8021ZM7.01843 42.92L4.81386 41.1734L2.75838 42.92H2.44953V41.0456H16.955L13.547 42.7283V42.92H7.00778H7.01843ZM4.72865 29.9269C4.95231 29.7884 5.10141 29.5648 5.12271 29.2879H6.14512C6.16642 29.5648 6.31553 29.7884 6.53918 29.9269V40.0551H4.73931V29.9269H4.72865ZM29.8417 29.9269V40.0551H24.9959V29.9269C25.2195 29.7884 25.3686 29.5648 25.3899 29.2879H29.4476C29.4689 29.5648 29.618 29.7884 29.8417 29.9269ZM7.36989 29.9269C7.59354 29.7884 7.74265 29.5648 7.76395 29.2879H12.0133C12.0346 29.5648 12.1837 29.7884 12.4074 29.9269V40.0551H7.36989V29.9269ZM24.1545 29.9269V40.0551H22.3546V29.9269C22.5783 29.7884 22.7274 29.5648 22.7487 29.2879H23.7711C23.7924 29.5648 23.9415 29.7884 24.1651 29.9269H24.1545ZM21.5133 29.9269V40.0551H15.9007V29.9269C16.1243 29.7884 16.2734 29.5648 16.2947 29.2879H21.1299C21.1512 29.5648 21.3003 29.7884 21.5239 29.9269H21.5133ZM15.0486 29.9269V40.0551H13.2488V29.9269C13.4724 29.7884 13.6215 29.5648 13.6428 29.2879H14.6652C14.6865 29.5648 14.8356 29.7884 15.0593 29.9269H15.0486ZM14.6759 42.92L18.4141 41.0776L22.4292 42.92H14.6759ZM27.3602 25.997V23.1321C27.3602 22.5357 26.8703 22.0458 26.2739 22.0458C25.6775 22.0458 25.1876 22.5357 25.1876 23.1321V25.1237C24.8681 24.8148 24.5166 24.4527 24.1865 23.9947C23.0788 22.4718 22.983 17.9561 22.983 17.9135V17.5727H22.7274V16.5929H28.9897V17.4343H28.8512V26.0076H27.3602V25.997ZM18.5206 21.5452C17.7964 21.5452 17.2 22.131 17.2 22.8658V25.997H16.3266V16.5823H20.9275V25.997H19.8412V22.8658C19.8412 22.1416 19.2554 21.5452 18.5206 21.5452ZM14.9528 18.2543H15.6237V25.997H12.1092C12.5672 25.6242 13.0997 25.1024 13.6215 24.3888C14.6759 22.9404 14.9102 19.3726 14.9528 18.2543ZM18.691 5.65522C18.691 5.65522 18.7442 5.65522 18.7655 5.65522C19.2554 5.68717 22.1203 6.36878 22.9936 15.6131H14.4522C14.5481 14.6439 14.8037 12.4394 15.4533 10.2667C16.1988 7.7746 17.6473 5.66587 18.6803 5.65522H18.691ZM21.6198 25.997V18.2543H22.2907C22.3333 19.3832 22.557 22.9404 23.622 24.3888C24.1332 25.0917 24.6764 25.6136 25.1343 25.997H21.6198ZM21.6198 17.4769V16.5823H22.0245V17.4769H21.6198ZM15.219 16.5823H15.6237V17.4769H15.219V16.5823ZM31.5776 24.474C32.0356 25.1024 32.5255 25.6029 32.9515 25.965H29.831V18.3928H30.2357C30.289 19.6495 30.5446 23.0469 31.5883 24.474H31.5776ZM30.0973 16.529V17.4236H29.6926V16.529H30.0973ZM28.3613 15.6131H23.9841C23.4729 10.1602 22.2481 7.42314 21.1192 6.07058C23.5474 6.84804 27.03 9.09521 28.3613 15.6131ZM18.659 1.66142C19.4258 1.66142 20.0542 2.28978 20.0648 3.05659H17.2532C17.2532 2.28978 17.8816 1.66142 18.659 1.66142ZM19.7986 4.079V4.60086H17.4875V4.079H19.7986ZM11.2146 10.3839C12.3116 8.63726 14.367 6.84804 16.4864 6.07058C15.6557 7.10364 14.9741 8.57336 14.5481 9.98982C13.8452 12.3648 13.5896 14.6759 13.5044 15.6131H9.12716C9.32952 14.6333 9.88333 12.5033 11.2252 10.3839H11.2146ZM7.15688 16.529H7.56159V17.4236H7.15688V16.529ZM5.67652 24.474C6.72023 23.0469 6.96519 19.6495 7.02909 18.3928H7.43379V25.965H4.3133C4.73931 25.5923 5.21856 25.1024 5.68717 24.474H5.67652ZM8.2645 17.4236V16.5823H14.5268V17.5621H14.2818V17.9029C14.2818 17.9029 14.1753 22.4611 13.0677 23.9841C12.663 24.5379 12.2476 24.9639 11.8749 25.2941V23.1321C11.8749 22.5357 11.385 22.0458 10.7886 22.0458C10.1922 22.0458 9.70227 22.5357 9.70227 23.1321V25.997H8.3923V17.4236H8.25385H8.2645ZM0.990463 26.9661H36.1892V28.2868H0.990463V26.9661ZM2.93943 29.2879H3.5039C3.5252 29.5648 3.67429 29.7884 3.89794 29.9269V40.0551H2.95008V29.2879H2.93943ZM12.1411 49.8V46.5943C12.1411 45.8701 11.5554 45.2737 10.8205 45.2737C10.0857 45.2737 9.49992 45.8595 9.49992 46.5943V49.8H7.72135V43.8892H13.5683V49.8H12.1411ZM27.8288 49.8V46.5943C27.8288 45.8701 27.243 45.2737 26.5082 45.2737C25.7733 45.2737 25.1876 45.8595 25.1876 46.5943V49.8H23.622V43.8892H29.4263V49.8H27.8181H27.8288ZM33.3562 40.0551V29.9269C33.5799 29.7884 33.729 29.5648 33.7503 29.2879H34.2615V40.0551H33.3669H33.3562Z" fill="#C49A6C"/>
<path d="M19.8182 37.4219H17.5391V39.2963H19.8182V37.4219Z" fill="#C49A6C"/>
<path d="M19.8182 32.3672H17.5391V36.3184H19.8182V32.3672Z" fill="#C49A6C"/>
<path d="M20.5252 31.9846L18.7785 30.4297L16.8828 31.9846H20.5252Z" fill="#C49A6C"/>
<path d="M28.5448 37.4219H26.2656V39.2963H28.5448V37.4219Z" fill="#C49A6C"/>
<path d="M28.5448 33.5068C28.5448 32.8784 28.0335 32.3672 27.4052 32.3672C26.7768 32.3672 26.2656 32.8784 26.2656 33.5068V36.3184H28.5448V33.5068Z" fill="#C49A6C"/>
<path d="M10.9119 37.4219H8.63281V39.2963H10.9119V37.4219Z" fill="#C49A6C"/>
<path d="M9.77238 32.3672C9.14402 32.3672 8.63281 32.8784 8.63281 33.5068V36.3184H10.9119V33.5068C10.9119 32.8784 10.4007 32.3672 9.77238 32.3672Z" fill="#C49A6C"/>
</svg>
